<svg aria-label="Next.js logomark" class="" height="80" role="img" viewBox="0 0 80 80" width="80"><rect fill="#000" height="80" rx="16" width="80"></rect><path d="M38.392 24.055v31.89c0 1.838.919 2.757 2.757 2.757s2.757-.919 2.757-2.757V24.055c0-1.838-.919-2.757-2.757-2.757s-2.757.919-2.757 2.757zM58.108 24.055v31.89c0 1.838.919 2.757 2.757 2.757s2.757-.919 2.757-2.757V24.055c0-1.838-.919-2.757-2.757-2.757s-2.757.919-2.757 2.757z" fill="#fff"></path><path d="M23.527 24.055v31.89c0 1.838.919 2.757 2.757 2.757s2.757-.919 2.757-2.757V24.055c0-1.838-.919-2.757-2.757-2.757s-2.757.919-2.757 2.757z" fill="url(#a)"></path><path d="M23.527 24.055v31.89c0 1.838.919 2.757 2.757 2.757s2.757-.919 2.757-2.757V24.055c0-1.838-.919-2.757-2.757-2.757s-2.757.919-2.757 2.757z" fill="url(#b)" opacity=".2"></path><defs><radialGradient cx="0" cy="0" gradientTransform="matrix(33.48214 0 0 33.48214 26.284 24.055)" gradientUnits="userSpaceOnUse" id="a" r="1"><stop stop-color="#fff"></stop><stop offset="1" stop-color="#fff" stop-opacity="0"></stop></radialGradient><radialGradient cx="0" cy="0" gradientTransform="matrix(33.48214 0 0 33.48214 26.284 24.055)" gradientUnits="userSpaceOnUse" id="b" r="1"><stop stop-color="#000"></stop><stop offset="1" stop-color="#000" stop-opacity="0"></stop></radialGradient></defs></svg>